<?xml version="1.0" encoding="UTF-8" standalone="no"?>
<!-- Created with Inkscape (http://www.inkscape.org/) -->
<svg xmlns:dc="http://purl.org/dc/elements/1.1/" xmlns:cc="http://creativecommons.org/ns#" xmlns:rdf="http://www.w3.org/1999/02/22-rdf-syntax-ns#" xmlns:svg="http://www.w3.org/2000/svg" xmlns="http://www.w3.org/2000/svg" xmlns:sodipodi="http://sodipodi.sourceforge.net/DTD/sodipodi-0.dtd" xmlns:inkscape="http://www.inkscape.org/namespaces/inkscape" version="1.1" id="svg2" xml:space="preserve" width="604.15198" height="151.09599" viewBox="0 0 604.15197 151.09599" sodipodi:docname="logo.svg" inkscape:version="0.92.1 unknown">
    <metadata id="metadata8">
        <rdf:RDF>
            <cc:Work rdf:about="">
                <dc:format>image/svg+xml</dc:format>
                <dc:type rdf:resource="http://purl.org/dc/dcmitype/StillImage"/>
                <dc:title/>
            </cc:Work>
        </rdf:RDF>
    </metadata>
    <defs id="defs6">
        <clipPath clipPathUnits="userSpaceOnUse" id="clipPath18">
            <path d="M 0,595.28 H 841.89 V 0 H 0 Z" id="path16" inkscape:connector-curvature="0"/>
        </clipPath>
    <style type="text/css"><![CDATA[
        .prompt {
            animation: blink 1s linear infinite;
        }
        @keyframes blink {
          50% {
            opacity: 0;
          }
        }
    ]]></style>
</defs>
    <sodipodi:namedview pagecolor="#ffffff" bordercolor="#666666" borderopacity="1" objecttolerance="10" gridtolerance="10" guidetolerance="10" inkscape:pageopacity="0" inkscape:pageshadow="2" inkscape:window-width="1920" inkscape:window-height="1029" id="namedview4" showgrid="false" inkscape:zoom="1.0654598" inkscape:cx="296.86827" inkscape:cy="114.27899" inkscape:window-x="0" inkscape:window-y="25" inkscape:window-maximized="1" inkscape:current-layer="g10" fit-margin-top="0" fit-margin-left="0" fit-margin-right="0" fit-margin-bottom="0"/>
    <g id="g10" inkscape:groupmode="layer" inkscape:label="logo_01D" transform="matrix(1.3333333,0,0,-1.3333333,-259.18399,472.40132)">
        <g id="g12">
            <g id="g14" clip-path="url(#clipPath18)">
                <g id="g20" transform="translate(647.502,308.999)">
                    <path d="m 0,0 c 0,1.56 -0.9,3.738 -2,4.843 l -38.324,38.446 c -1.1,1.105 -3.276,2.008 -4.834,2.008 l -362.605,0.005 c -1.558,0 -3.736,-0.902 -4.84,-2.004 L -451.11,4.814 c -1.102,-1.102 -2.004,-3.279 -2.004,-4.838 v -22.62 c 0,-1.559 0.902,-3.737 2.004,-4.838 l 38.496,-38.524 c 1.101,-1.103 3.279,-2.006 4.838,-2.006 l 362.604,-0.008 c 1.559,0 3.734,0.904 4.836,2.007 l 38.334,38.431 C -0.9,-26.479 0,-24.301 0,-22.741 Z" style="fill:#101c28;fill-opacity:1;fill-rule:nonzero;stroke:none" id="path22" inkscape:connector-curvature="0"/>
                </g>
                <g id="g24" transform="translate(544.9043,323.9873)">
                    <path d="m 0,0 c -0.457,0.46 -1.213,1.211 -1.67,1.67 l -1.135,1.133 c -0.459,0.459 -1.209,0.459 -1.668,0 l -3.933,-3.934 c -0.461,-0.46 -0.461,-1.212 0,-1.672 l 1.129,-1.131 c 0.461,-0.459 1.214,-1.212 1.672,-1.671 l 19.894,-19.891 c 0.461,-0.459 0.461,-1.209 0,-1.67 l -19.894,-19.89 c -0.458,-0.461 -1.211,-1.212 -1.672,-1.673 l -1.129,-1.13 c -0.461,-0.459 -0.459,-1.211 0,-1.671 l 3.933,-3.933 c 0.459,-0.461 1.209,-0.461 1.668,0 l 1.135,1.131 c 0.457,0.458 1.213,1.209 1.67,1.67 l 22.693,22.693 c 0.461,0.458 0.836,1.365 0.836,2.017 v 3.241 c 0,0.649 -0.375,1.557 -0.836,2.018 z" style="fill:#28a745;fill-opacity:1;fill-rule:nonzero;stroke:none" id="path26" inkscape:connector-curvature="0"/>
                </g>
                <g id="g28" transform="translate(610.9297,277.2646)">
                    <path d="m 0,0 h -1.6 -2.363 -32.047 -2.359 -1.608 c -0.646,0 -1.179,-0.533 -1.179,-1.182 v -5.562 c 0,-0.651 0.533,-1.182 1.179,-1.182 h 1.608 2.359 H -3.963 -1.6 0 c 0.65,0 1.184,0.531 1.184,1.182 v 5.562 C 1.184,-0.533 0.65,0 0,0" style="fill:#28a745;fill-opacity:1;fill-rule:nonzero;stroke:none" id="path30" class="prompt" inkscape:connector-curvature="0"/>
                </g>
                <g id="g32" transform="translate(269.8564,325.9912)">
                    <path d="m 0,0 h -1.596 -2.365 -10.738 c -0.651,0 -1.674,-0.205 -2.272,-0.451 l -0.621,-0.256 c -0.601,-0.248 -1.467,-0.829 -1.928,-1.287 l -22.691,-22.694 c -0.461,-0.46 -0.838,-1.368 -0.838,-2.017 v -3.241 c 0,-0.65 0.377,-1.558 0.838,-2.017 l 22.691,-22.693 c 0.461,-0.459 1.327,-1.039 1.928,-1.288 l 0.621,-0.257 c 0.598,-0.25 1.621,-0.451 2.272,-0.451 H -3.961 -1.596 0 c 0.648,0 1.182,0.529 1.182,1.179 v 5.566 c 0,0.647 -0.534,1.18 -1.182,1.18 h -1.596 -2.365 -9.096 c -0.65,0 -1.56,0.375 -2.017,0.835 l -18.733,18.732 c -0.457,0.459 -0.457,1.211 0,1.671 l 18.733,18.729 c 0.457,0.459 1.367,0.834 2.017,0.834 H -3.961 -1.596 0 c 0.648,0 1.182,0.531 1.182,1.183 v 5.561 C 1.182,-0.531 0.648,0 0,0" style="fill:#ffffff;fill-opacity:1;fill-rule:nonzero;stroke:none" id="path34" inkscape:connector-curvature="0"/>
                </g>
                <g id="g36" transform="translate(318.8369,325.9912)">
                    <path d="m 0,0 h -1.605 -2.36 -28.365 c -0.65,0 -1.557,-0.377 -2.014,-0.836 l -2.279,-2.289 c -0.459,-0.462 -0.834,-1.369 -0.834,-2.02 v -18.053 c 0,-0.649 0,-1.18 -0.002,-1.18 v -1.182 -5.531 c 0,-0.651 0.002,-1.182 0.002,-1.182 v -1.18 -18.055 c 0,-0.649 0.375,-1.558 0.83,-2.017 l 2.283,-2.29 c 0.457,-0.462 1.364,-0.837 2.014,-0.837 H -3.965 -1.605 0 c 0.646,0 1.182,0.529 1.182,1.179 v 5.566 c 0,0.647 -0.536,1.18 -1.182,1.18 h -1.605 -2.36 -24.416 c -0.646,0 -1.183,0.532 -1.183,1.181 v 14.093 c 0,0.648 0.537,1.18 1.183,1.18 h 17.012 2.359 1.588 c 0.651,0 1.186,0.531 1.186,1.182 v 5.531 c 0,0.651 -0.535,1.182 -1.186,1.182 h -1.588 -2.359 -17.012 c -0.646,0 -1.183,0.531 -1.183,1.18 v 14.092 c 0,0.649 0.537,1.18 1.183,1.18 H -3.965 -1.605 0 c 0.646,0 1.182,0.531 1.182,1.183 v 5.561 C 1.182,-0.531 0.646,0 0,0" style="fill:#ffffff;fill-opacity:1;fill-rule:nonzero;stroke:none" id="path38" inkscape:connector-curvature="0"/>
                </g>
                <g id="g40" transform="translate(417.6611,319.249)">
                    <path d="m 0,0 v 5.563 c 0,0.65 -0.529,1.181 -1.18,1.181 h -1.601 -2.364 -30.603 -2.362 -1.601 c -0.648,0 -1.184,-0.531 -1.184,-1.181 V 0 c 0,-0.65 0.536,-1.182 1.184,-1.182 h 1.601 2.362 10.158 c 0.651,0 1.18,-0.531 1.18,-1.182 v -42.402 -2.363 -1.6 c 0,-0.65 0.533,-1.181 1.183,-1.181 h 5.561 c 0.65,0 1.184,0.531 1.184,1.181 v 1.6 2.363 42.402 c 0,0.651 0.531,1.182 1.179,1.182 h 10.158 2.364 1.601 C -0.529,-1.182 0,-0.65 0,0" style="fill:#ffffff;fill-opacity:1;fill-rule:nonzero;stroke:none" id="path42" inkscape:connector-curvature="0"/>
                </g>
                <g id="g44" transform="translate(353.9131,292.8232)">
                    <path d="m 0,0 c -0.424,0.49 -0.24,0.894 0.412,0.894 h 9.713 c 0.65,0 1.557,0.379 2.008,0.842 l 2.295,2.327 c 0.455,0.462 0.818,1.374 0.804,2.023 l 0.022,21.588 c -0.01,0.65 -0.397,1.555 -0.859,2.012 l -2.684,2.654 c -0.459,0.455 -1.369,0.83 -2.02,0.83 h -29.468 c -0.649,0 -1.559,-0.376 -2.014,-0.838 l -2.285,-2.288 c -0.457,-0.462 -0.83,-1.368 -0.83,-2.019 v -46.365 -2.363 -1.584 c 0,-0.651 0.529,-1.18 1.177,-1.18 h 5.534 c 0.652,0 1.179,0.529 1.179,1.18 v 1.584 2.363 42.402 c 0,0.651 0.536,1.182 1.186,1.182 H 6.016 c 0.648,0 1.191,-0.531 1.203,-1.182 L 7.266,9.973 C 7.279,9.324 6.756,8.79 6.107,8.79 H -7.162 c -0.649,0 -1.404,-0.483 -1.672,-1.075 l -2.008,-4.383 c -0.27,-0.591 -0.144,-1.477 0.279,-1.969 L 9.033,-22.59 c 0.424,-0.492 1.301,-0.894 1.949,-0.894 h 8.073 c 0.648,0 0.834,0.402 0.408,0.894 z" style="fill:#ffffff;fill-opacity:1;fill-rule:nonzero;stroke:none" id="path46" inkscape:connector-curvature="0"/>
                </g>
                <g id="g48" transform="translate(519.2598,277.2627)">
                    <path d="m 0,0 h -1.596 -2.365 -18.387 c -0.65,0 -1.181,0.532 -1.181,1.182 v 42.402 2.362 1.585 c 0,0.651 -0.532,1.182 -1.182,1.182 h -5.533 c -0.649,0 -1.182,-0.531 -1.182,-1.182 V 45.946 43.584 -2.781 c 0,-0.651 0.375,-1.558 0.832,-2.02 l 2.285,-2.288 c 0.457,-0.46 1.364,-0.835 2.012,-0.835 H -3.961 -1.596 0 c 0.648,0 1.182,0.529 1.182,1.18 v 5.562 C 1.182,-0.531 0.648,0 0,0" style="fill:#ffffff;fill-opacity:1;fill-rule:nonzero;stroke:none" id="path50" inkscape:connector-curvature="0"/>
                </g>
                <g id="g52" transform="translate(475.1211,325.1436)">
                    <path d="m 0,0 c -0.461,0.458 -1.371,0.832 -2.02,0.832 h -28.863 c -0.652,0 -1.558,-0.376 -2.017,-0.838 l -2.282,-2.287 c -0.459,-0.463 -0.834,-1.369 -0.834,-2.02 v -46.365 -2.363 -1.584 c 0,-0.65 0.532,-1.18 1.182,-1.18 h 5.533 c 0.651,0 1.182,0.53 1.182,1.18 v 1.584 2.363 42.403 c 0,0.65 0.531,1.181 1.183,1.181 H -5.77 c 0.653,0 1.188,-0.531 1.204,-1.181 V -22.352 C -4.555,-23 -5.08,-23.533 -5.727,-23.533 h -13.009 -2.366 -1.599 c -0.649,0 -1.18,-0.531 -1.18,-1.182 v -5.562 c 0,-0.65 0.531,-1.182 1.18,-1.182 h 1.599 2.366 17.132 c 0.649,0 1.555,0.381 2.01,0.846 l 2.293,2.336 c 0.457,0.463 0.819,1.375 0.809,2.024 v 22.002 c -0.012,0.649 -0.401,1.555 -0.862,2.012 z" style="fill:#ffffff;fill-opacity:1;fill-rule:nonzero;stroke:none" id="path54" inkscape:connector-curvature="0"/>
                </g>
                <g id="g56" transform="translate(422.8555,278.3926)">
                    <path d="M 0,0 H -6.212 C -6.935,0 -7.53,-0.595 -7.53,-1.318 v -1.788 -2.442 -0.4 -1.786 c 0,-0.726 0.595,-1.32 1.318,-1.32 H 0 c 0.729,0 1.322,0.594 1.322,1.32 v 1.786 2.443 0.399 1.788 C 1.322,-0.595 0.729,0 0,0" style="fill:#ffffff;fill-opacity:1;fill-rule:nonzero;stroke:none" id="path58" inkscape:connector-curvature="0"/>
                </g>
            </g>
        </g>
    </g>
</svg>