<?xml version="1.0" encoding="UTF-8"?>
<svg version="1.1" viewBox="0 0 604.15 151.1" xmlSpace="preserve" xmlns="http://www.w3.org/2000/svg" xmlnscc="http://creativecommons.org/ns#" xmlnsdc="http://purl.org/dc/elements/1.1/" xmlnsrdf="http://www.w3.org/1999/02/22-rdf-syntax-ns#">
    <metadata>
        <rdfRDF>
            <ccWork rdfabout="">
                <dcFormat>image/svg+xml</dcFormat>
                <dcType rdfresource="http://purl.org/dc/dcmitype/StillImage"/>
                <dcTitle/>
            </ccWork>
        </rdfRDF>
    </metadata>
    <defs>
        <clipPath id="a">
            <path d="M 0,595.28 H 841.89 V 0 H 0 Z"/>
        </clipPath>
</defs>
    
    <g transform="matrix(1.3333 0 0 -1.3333 -259.18 472.4)">
        
            <g clip-path="url(#a)">
                <g transform="translate(647.5 309)">
                    <path d="m0 0c0 1.56-0.9 3.738-2 4.843l-38.324 38.446c-1.1 1.105-3.276 2.008-4.834 2.008l-362.6 5e-3c-1.558 0-3.736-0.902-4.84-2.004l-38.507-38.484c-1.102-1.102-2.004-3.279-2.004-4.838v-22.62c0-1.559 0.902-3.737 2.004-4.838l38.496-38.524c1.101-1.103 3.279-2.006 4.838-2.006l362.6-8e-3c1.559 0 3.734 0.904 4.836 2.007l38.334 38.431c1.102 1.103 2.002 3.281 2.002 4.841z" fill="#101c28"/>
                </g>
                <g transform="translate(544.9 323.99)">
                    <path d="m0 0c-0.457 0.46-1.213 1.211-1.67 1.67l-1.135 1.133c-0.459 0.459-1.209 0.459-1.668 0l-3.933-3.934c-0.461-0.46-0.461-1.212 0-1.672l1.129-1.131c0.461-0.459 1.214-1.212 1.672-1.671l19.894-19.891c0.461-0.459 0.461-1.209 0-1.67l-19.894-19.89c-0.458-0.461-1.211-1.212-1.672-1.673l-1.129-1.13c-0.461-0.459-0.459-1.211 0-1.671l3.933-3.933c0.459-0.461 1.209-0.461 1.668 0l1.135 1.131c0.457 0.458 1.213 1.209 1.67 1.67l22.693 22.693c0.461 0.458 0.836 1.365 0.836 2.017v3.241c0 0.649-0.375 1.557-0.836 2.018z" fill="#28a745"/>
                </g>
                <g transform="translate(610.93 277.26)">
                    <path class="prompt" d="m0 0h-39.977c-0.646 0-1.179-0.533-1.179-1.182v-5.562c0-0.651 0.533-1.182 1.179-1.182h39.977c0.65 0 1.184 0.531 1.184 1.182v5.562c0 0.649-0.534 1.182-1.184 1.182" fill="#28a745"/>
                </g>
                <g transform="translate(269.86 325.99)">
                    <path d="m0 0h-14.699c-0.651 0-1.674-0.205-2.272-0.451l-0.621-0.256c-0.601-0.248-1.467-0.829-1.928-1.287l-22.691-22.694c-0.461-0.46-0.838-1.368-0.838-2.017v-3.241c0-0.65 0.377-1.558 0.838-2.017l22.691-22.693c0.461-0.459 1.327-1.039 1.928-1.288l0.621-0.257c0.598-0.25 1.621-0.451 2.272-0.451h14.699c0.648 0 1.182 0.529 1.182 1.179v5.566c0 0.647-0.534 1.18-1.182 1.18h-13.057c-0.65 0-1.56 0.375-2.017 0.835l-18.733 18.732c-0.457 0.459-0.457 1.211 0 1.671l18.733 18.729c0.457 0.459 1.367 0.834 2.017 0.834h13.057c0.648 0 1.182 0.531 1.182 1.183v5.561c0 0.651-0.534 1.182-1.182 1.182" fill="#fff"/>
                </g>
                <g transform="translate(318.84 325.99)">
                    <path d="m0 0h-32.33c-0.65 0-1.557-0.377-2.014-0.836l-2.279-2.289c-0.459-0.462-0.834-1.369-0.834-2.02v-18.053c0-0.649 0-1.18-2e-3 -1.18v-6.713c0-0.651 2e-3 -1.182 2e-3 -1.182v-19.235c0-0.649 0.375-1.558 0.83-2.017l2.283-2.29c0.457-0.462 1.364-0.837 2.014-0.837h32.33c0.646 0 1.182 0.529 1.182 1.179v5.566c0 0.647-0.536 1.18-1.182 1.18h-28.381c-0.646 0-1.183 0.532-1.183 1.181v14.093c0 0.648 0.537 1.18 1.183 1.18h20.959c0.651 0 1.186 0.531 1.186 1.182v5.531c0 0.651-0.535 1.182-1.186 1.182h-20.959c-0.646 0-1.183 0.531-1.183 1.18v14.092c0 0.649 0.537 1.18 1.183 1.18h28.381c0.646 0 1.182 0.531 1.182 1.183v5.561c0 0.651-0.536 1.182-1.182 1.182" fill="#fff"/>
                </g>
                <g transform="translate(417.66 319.25)">
                    <path d="m0 0v5.563c0 0.65-0.529 1.181-1.18 1.181h-38.531c-0.648 0-1.184-0.531-1.184-1.181v-5.563c0-0.65 0.536-1.182 1.184-1.182h14.121c0.651 0 1.18-0.531 1.18-1.182v-46.365c0-0.65 0.533-1.181 1.183-1.181h5.561c0.65 0 1.184 0.531 1.184 1.181v46.365c0 0.651 0.531 1.182 1.179 1.182h14.123c0.651 0 1.18 0.532 1.18 1.182" fill="#fff"/>
                </g>
                <g transform="translate(353.91 292.82)">
                    <path d="m0 0c-0.424 0.49-0.24 0.894 0.412 0.894h9.713c0.65 0 1.557 0.379 2.008 0.842l2.295 2.327c0.455 0.462 0.818 1.374 0.804 2.023l0.022 21.588c-0.01 0.65-0.397 1.555-0.859 2.012l-2.684 2.654c-0.459 0.455-1.369 0.83-2.02 0.83h-29.468c-0.649 0-1.559-0.376-2.014-0.838l-2.285-2.288c-0.457-0.462-0.83-1.368-0.83-2.019v-50.312c0-0.651 0.529-1.18 1.177-1.18h5.534c0.652 0 1.179 0.529 1.179 1.18v46.349c0 0.651 0.536 1.182 1.186 1.182h21.846c0.648 0 1.191-0.531 1.203-1.182l0.047-14.089c0.013-0.649-0.51-1.183-1.159-1.183h-13.269c-0.649 0-1.404-0.483-1.672-1.075l-2.008-4.383c-0.27-0.591-0.144-1.477 0.279-1.969l19.596-23.953c0.424-0.492 1.301-0.894 1.949-0.894h8.073c0.648 0 0.834 0.402 0.408 0.894z" fill="#fff"/>
                </g>
                <g transform="translate(519.26 277.26)">
                    <path d="m0 0h-22.348c-0.65 0-1.181 0.532-1.181 1.182v46.349c0 0.651-0.532 1.182-1.182 1.182h-5.533c-0.649 0-1.182-0.531-1.182-1.182v-50.312c0-0.651 0.375-1.558 0.832-2.02l2.285-2.288c0.457-0.46 1.364-0.835 2.012-0.835h26.297c0.648 0 1.182 0.529 1.182 1.18v5.562c0 0.651-0.534 1.182-1.182 1.182" fill="#fff"/>
                </g>
                <g transform="translate(475.12 325.14)">
                    <path d="m0 0c-0.461 0.458-1.371 0.832-2.02 0.832h-28.863c-0.652 0-1.558-0.376-2.017-0.838l-2.282-2.287c-0.459-0.463-0.834-1.369-0.834-2.02v-50.312c0-0.65 0.532-1.18 1.182-1.18h5.533c0.651 0 1.182 0.53 1.182 1.18v46.35c0 0.65 0.531 1.181 1.183 1.181h21.166c0.653 0 1.188-0.531 1.204-1.181v-14.077c0.011-0.648-0.514-1.181-1.161-1.181h-16.974c-0.649 0-1.18-0.531-1.18-1.182v-5.562c0-0.65 0.531-1.182 1.18-1.182h21.097c0.649 0 1.555 0.381 2.01 0.846l2.293 2.336c0.457 0.463 0.819 1.375 0.809 2.024v22.002c-0.012 0.649-0.401 1.555-0.862 2.012z" fill="#fff"/>
                </g>
                <g transform="translate(422.86 278.39)">
                    <path d="m0 0h-6.212c-0.723 0-1.318-0.595-1.318-1.318v-6.416c0-0.726 0.595-1.32 1.318-1.32h6.212c0.729 0 1.322 0.594 1.322 1.32v6.416c0 0.723-0.593 1.318-1.322 1.318" fill="#fff"/>
                </g>
            </g>
        
    </g>
</svg>
